G75*
%MOIN*%
%OFA0B0*%
%FSLAX24Y24*%
%IPPOS*%
%LPD*%
%AMOC8*
5,1,8,0,0,1.08239X$1,22.5*
%
%ADD10C,0.1142*%
%ADD11C,0.0560*%
%ADD12C,0.1000*%
%ADD13C,0.0140*%
%ADD14R,0.0670X0.0750*%
%ADD15R,0.0290X0.0540*%
%ADD16C,0.1045*%
%ADD17C,0.0700*%
%ADD18R,0.1221X0.0670*%
%ADD19R,0.2290X0.1940*%
%ADD20R,0.0500X0.0670*%
D10*
X002500Y014450D03*
D11*
X014650Y014550D02*
X016525Y012675D01*
X016525Y009425D01*
X017650Y008300D01*
X018150Y008300D01*
X018150Y006300D02*
X017650Y006300D01*
X015650Y008300D01*
X015650Y009550D01*
X014650Y010550D01*
X014650Y006550D02*
X016025Y005175D01*
X016775Y005175D01*
X017650Y004300D01*
X018150Y004300D01*
X016275Y002550D02*
X014650Y002550D01*
X016275Y002550D02*
X016525Y002300D01*
X018150Y002300D01*
D12*
X018150Y010300D02*
X018150Y012800D01*
D13*
X006275Y009300D02*
X005900Y009300D01*
X005900Y007800D02*
X006275Y007800D01*
D14*
X009090Y001300D03*
X010210Y001300D03*
X010210Y002550D03*
X009090Y002550D03*
X009090Y005300D03*
X010210Y005300D03*
X010210Y006550D03*
X009090Y006550D03*
X009090Y009300D03*
X010210Y009300D03*
X010210Y010550D03*
X009090Y010550D03*
X009090Y013300D03*
X010210Y013300D03*
X010210Y014550D03*
X009090Y014550D03*
D15*
X006577Y010800D03*
X006223Y010800D03*
D16*
X017648Y010300D02*
X018653Y010300D01*
X018653Y008300D02*
X017648Y008300D01*
X017648Y006300D02*
X018653Y006300D01*
X018653Y004300D02*
X017648Y004300D01*
X017648Y002300D02*
X018653Y002300D01*
X018653Y012800D02*
X017648Y012800D01*
X017648Y014800D02*
X018653Y014800D01*
D17*
X009150Y015800D03*
X008150Y015800D03*
X007150Y015800D03*
X006150Y015800D03*
X005150Y015800D03*
X004150Y015800D03*
D18*
X011809Y015448D03*
X011809Y013652D03*
X011809Y011448D03*
X011809Y009652D03*
X011809Y007448D03*
X011809Y005652D03*
X011809Y003448D03*
X011809Y001652D03*
D19*
X014525Y002550D03*
X014525Y006550D03*
X014525Y010550D03*
X014525Y014550D03*
D20*
X007000Y009300D03*
X006400Y009300D03*
X005800Y009300D03*
X005800Y007800D03*
X006400Y007800D03*
X007000Y007800D03*
M02*
