%
M48
M72
T01C0.0120
T02C0.0394
T03C0.0670
T04C0.1102
%
T01
X2400Y2550
X6750Y6300
X7550Y4800
X8325Y4800
X4400Y7550
X6150Y8675
X6650Y8425
X5400Y9800
X6750Y12300
T02
X7150Y15800
X6150Y15800
X5150Y15800
X4150Y15800
X8150Y15800
X9150Y15800
T03
X18150Y14800
X18150Y12800
X18150Y10300
X18150Y8300
X18150Y6300
X18150Y4300
X18150Y2300
T04
X2500Y14450
M30
