G75*
%MOIN*%
%OFA0B0*%
%FSLAX24Y24*%
%IPPOS*%
%LPD*%
%AMOC8*
5,1,8,0,0,1.08239X$1,22.5*
%
%ADD10C,0.1142*%
%ADD11C,0.1045*%
%ADD12C,0.0700*%
%ADD13R,0.0750X0.0670*%
%ADD14R,0.0749X0.0670*%
%ADD15R,0.0500X0.0700*%
%ADD16R,0.2040X0.1040*%
%ADD17R,0.0900X0.0400*%
%ADD18R,0.0985X0.1142*%
%ADD19R,0.0290X0.0540*%
D10*
X002500Y014450D03*
D11*
X017648Y014800D02*
X018653Y014800D01*
X018653Y012800D02*
X017648Y012800D01*
X017648Y010300D02*
X018653Y010300D01*
X018653Y008300D02*
X017648Y008300D01*
X017648Y006300D02*
X018653Y006300D01*
X018653Y004300D02*
X017648Y004300D01*
X017648Y002300D02*
X018653Y002300D01*
D12*
X009150Y015800D03*
X008150Y015800D03*
X007150Y015800D03*
X006150Y015800D03*
X005150Y015800D03*
X004150Y015800D03*
D13*
X007150Y014360D03*
X007150Y013240D03*
X008650Y013240D03*
X008650Y014360D03*
X008650Y003860D03*
X008650Y002740D03*
X005650Y002740D03*
X005650Y003860D03*
X004150Y003860D03*
X004150Y002740D03*
D14*
X007150Y002749D03*
X007150Y003851D03*
D15*
X007538Y005475D03*
X008325Y005475D03*
X009113Y005475D03*
X006750Y005475D03*
X005963Y005475D03*
X005176Y005475D03*
X004388Y005475D03*
X003601Y005475D03*
X003601Y011625D03*
X004388Y011625D03*
X005176Y011625D03*
X005963Y011625D03*
X006750Y011625D03*
X007538Y011625D03*
X008325Y011625D03*
X009113Y011625D03*
D16*
X011525Y012550D03*
X015275Y012550D03*
X015275Y004550D03*
X011525Y004550D03*
D17*
X001650Y002550D03*
X001650Y003050D03*
X001650Y003550D03*
X001650Y004050D03*
D18*
X012160Y001800D03*
X014640Y001800D03*
D19*
X010077Y003300D03*
X009723Y003300D03*
M02*
