G75*
%MOIN*%
%OFA0B0*%
%FSLAX24Y24*%
%IPPOS*%
%LPD*%
%AMOC8*
5,1,8,0,0,1.08239X$1,22.5*
%
%ADD10C,0.0000*%
%ADD11C,0.0050*%
%ADD12C,0.0080*%
%ADD13R,0.0300X0.0340*%
%ADD14R,0.0011X0.0133*%
%ADD15R,0.0011X0.0278*%
%ADD16R,0.0011X0.0378*%
%ADD17R,0.0011X0.0444*%
%ADD18R,0.0011X0.0544*%
%ADD19R,0.0011X0.0644*%
%ADD20R,0.0011X0.0744*%
%ADD21R,0.0011X0.0855*%
%ADD22R,0.0011X0.0911*%
%ADD23R,0.0011X0.1011*%
%ADD24R,0.0011X0.1100*%
%ADD25R,0.0011X0.1211*%
%ADD26R,0.0011X0.1278*%
%ADD27R,0.0011X0.1378*%
%ADD28R,0.0011X0.1478*%
%ADD29R,0.0011X0.1311*%
%ADD30R,0.0011X0.0156*%
%ADD31R,0.0011X0.1245*%
%ADD32R,0.0011X0.1189*%
%ADD33R,0.0011X0.1000*%
%ADD34R,0.0011X0.0167*%
%ADD35R,0.0011X0.0856*%
%ADD36R,0.0011X0.0745*%
%ADD37R,0.0011X0.0167*%
%ADD38R,0.0011X0.0645*%
%ADD39R,0.0011X0.0545*%
%ADD40R,0.0011X0.0445*%
%ADD41R,0.0011X0.0389*%
%ADD42R,0.0011X0.0289*%
%ADD43R,0.0011X0.0178*%
%ADD44R,0.0011X0.0167*%
%ADD45R,0.0011X0.0156*%
%ADD46R,0.0011X0.0167*%
%ADD47R,0.0011X0.0156*%
%ADD48R,0.0011X0.0011*%
%ADD49R,0.0011X0.0156*%
%ADD50R,0.0011X0.0256*%
%ADD51R,0.0011X0.0344*%
%ADD52R,0.0011X0.0456*%
%ADD53R,0.0011X0.0489*%
%ADD54R,0.0011X0.0544*%
%ADD55R,0.0011X0.0245*%
%ADD56R,0.0011X0.0211*%
%ADD57R,0.0011X0.0200*%
%ADD58R,0.0011X0.0189*%
%ADD59R,0.0011X0.0155*%
%ADD60R,0.0011X0.0145*%
%ADD61R,0.0011X0.0144*%
%ADD62R,0.0011X0.0134*%
%ADD63R,0.0011X0.0122*%
%ADD64R,0.0011X0.0111*%
%ADD65R,0.0011X0.0112*%
%ADD66R,0.0011X0.0100*%
%ADD67R,0.0011X0.0089*%
%ADD68R,0.0011X0.0089*%
%ADD69R,0.0011X0.0155*%
%ADD70R,0.0011X0.0100*%
%ADD71R,0.0011X0.0089*%
%ADD72R,0.0011X0.0166*%
%ADD73R,0.0011X0.0077*%
%ADD74R,0.0011X0.0088*%
%ADD75R,0.0011X0.0078*%
%ADD76R,0.0011X0.0078*%
%ADD77R,0.0011X0.0166*%
%ADD78R,0.0011X0.0066*%
%ADD79R,0.0011X0.0044*%
%ADD80R,0.0011X0.0066*%
%ADD81R,0.0011X0.0166*%
%ADD82R,0.0011X0.0077*%
%ADD83R,0.0011X0.0144*%
%ADD84R,0.0011X0.0033*%
%ADD85R,0.0011X0.0055*%
%ADD86R,0.0011X0.0067*%
%ADD87R,0.0011X0.0177*%
%ADD88R,0.0011X0.0178*%
%ADD89R,0.0011X0.0345*%
%ADD90R,0.0011X0.0122*%
%ADD91R,0.0011X0.0145*%
%ADD92R,0.0011X0.0356*%
%ADD93R,0.0011X0.0367*%
%ADD94R,0.0011X0.0233*%
%ADD95R,0.0011X0.0067*%
%ADD96R,0.0011X0.0034*%
%ADD97R,0.0011X0.0323*%
%ADD98R,0.0011X0.0311*%
%ADD99R,0.0011X0.0300*%
%ADD100R,0.0011X0.0289*%
%ADD101R,0.0011X0.0022*%
%ADD102R,0.0011X0.0267*%
%ADD103R,0.0011X0.0256*%
%ADD104R,0.0011X0.0256*%
%ADD105R,0.0011X0.0033*%
%ADD106R,0.0011X0.0255*%
%ADD107R,0.0011X0.0255*%
%ADD108R,0.0011X0.0133*%
%ADD109R,0.0011X0.0355*%
%ADD110R,0.0011X0.0367*%
%ADD111R,0.0011X0.0367*%
%ADD112R,0.0011X0.0377*%
%ADD113R,0.0011X0.0388*%
%ADD114R,0.0011X0.0378*%
%ADD115R,0.0011X0.0378*%
%ADD116R,0.0011X0.0256*%
%ADD117R,0.0011X0.0366*%
%ADD118R,0.0011X0.0266*%
%ADD119R,0.0011X0.0377*%
%ADD120R,0.0011X0.0244*%
%ADD121R,0.0011X0.0389*%
%ADD122R,0.0011X0.0611*%
%ADD123R,0.0011X0.0578*%
%ADD124R,0.0011X0.0511*%
%ADD125R,0.0011X0.0466*%
%ADD126R,0.0011X0.0422*%
%ADD127R,0.0011X0.0244*%
%ADD128R,0.0011X0.0178*%
%ADD129C,0.0060*%
%ADD130R,0.0007X0.1419*%
%ADD131R,0.0007X0.1472*%
%ADD132R,0.0007X0.1525*%
%ADD133R,0.0007X0.1538*%
%ADD134R,0.0007X0.1564*%
%ADD135R,0.0007X0.1577*%
%ADD136R,0.0007X0.1604*%
%ADD137R,0.0007X0.1617*%
%ADD138R,0.0007X0.1624*%
%ADD139R,0.0007X0.1630*%
%ADD140R,0.0007X0.1643*%
%ADD141R,0.0007X0.1657*%
%ADD142R,0.0007X0.1657*%
%ADD143R,0.0007X0.1670*%
%ADD144R,0.0007X0.1683*%
%ADD145R,0.0007X0.1683*%
%ADD146R,0.0007X0.1696*%
%ADD147R,0.0007X0.1696*%
%ADD148R,0.0007X0.1709*%
%ADD149R,0.0007X0.1709*%
%ADD150R,0.0007X0.0231*%
%ADD151R,0.0007X0.0574*%
%ADD152R,0.0007X0.0719*%
%ADD153R,0.0007X0.0198*%
%ADD154R,0.0007X0.0178*%
%ADD155R,0.0007X0.0185*%
%ADD156R,0.0007X0.0310*%
%ADD157R,0.0007X0.0218*%
%ADD158R,0.0007X0.0178*%
%ADD159R,0.0007X0.0158*%
%ADD160R,0.0007X0.0165*%
%ADD161R,0.0007X0.0284*%
%ADD162R,0.0007X0.0211*%
%ADD163R,0.0007X0.0139*%
%ADD164R,0.0007X0.0152*%
%ADD165R,0.0007X0.0264*%
%ADD166R,0.0007X0.0152*%
%ADD167R,0.0007X0.0125*%
%ADD168R,0.0007X0.0139*%
%ADD169R,0.0007X0.0251*%
%ADD170R,0.0007X0.0211*%
%ADD171R,0.0007X0.0139*%
%ADD172R,0.0007X0.0119*%
%ADD173R,0.0007X0.0125*%
%ADD174R,0.0007X0.0238*%
%ADD175R,0.0007X0.0205*%
%ADD176R,0.0007X0.0132*%
%ADD177R,0.0007X0.0106*%
%ADD178R,0.0007X0.0119*%
%ADD179R,0.0007X0.0224*%
%ADD180R,0.0007X0.0125*%
%ADD181R,0.0007X0.0099*%
%ADD182R,0.0007X0.0112*%
%ADD183R,0.0007X0.0205*%
%ADD184R,0.0007X0.0112*%
%ADD185R,0.0007X0.0092*%
%ADD186R,0.0007X0.0099*%
%ADD187R,0.0007X0.0198*%
%ADD188R,0.0007X0.0106*%
%ADD189R,0.0007X0.0086*%
%ADD190R,0.0007X0.0092*%
%ADD191R,0.0007X0.0198*%
%ADD192R,0.0007X0.0106*%
%ADD193R,0.0007X0.0079*%
%ADD194R,0.0007X0.0191*%
%ADD195R,0.0007X0.0073*%
%ADD196R,0.0007X0.0086*%
%ADD197R,0.0007X0.0178*%
%ADD198R,0.0007X0.0191*%
%ADD199R,0.0007X0.0073*%
%ADD200R,0.0007X0.0079*%
%ADD201R,0.0007X0.0191*%
%ADD202R,0.0007X0.0066*%
%ADD203R,0.0007X0.0172*%
%ADD204R,0.0007X0.0059*%
%ADD205R,0.0007X0.0066*%
%ADD206R,0.0007X0.0158*%
%ADD207R,0.0007X0.0079*%
%ADD208R,0.0007X0.0059*%
%ADD209R,0.0007X0.0066*%
%ADD210R,0.0007X0.0185*%
%ADD211R,0.0007X0.0046*%
%ADD212R,0.0007X0.0053*%
%ADD213R,0.0007X0.0046*%
%ADD214R,0.0007X0.0145*%
%ADD215R,0.0007X0.0053*%
%ADD216R,0.0007X0.0145*%
%ADD217R,0.0007X0.0099*%
%ADD218R,0.0007X0.0139*%
%ADD219R,0.0007X0.0046*%
%ADD220R,0.0007X0.0244*%
%ADD221R,0.0007X0.0244*%
%ADD222R,0.0007X0.0132*%
%ADD223R,0.0007X0.0172*%
%ADD224R,0.0007X0.0132*%
%ADD225R,0.0007X0.0132*%
%ADD226R,0.0007X0.0238*%
%ADD227R,0.0007X0.0165*%
%ADD228R,0.0007X0.0290*%
%ADD229R,0.0007X0.0356*%
%ADD230R,0.0007X0.0323*%
%ADD231R,0.0007X0.0515*%
%ADD232R,0.0007X0.0007*%
%ADD233R,0.0007X0.0317*%
%ADD234R,0.0007X0.0508*%
%ADD235R,0.0007X0.0007*%
%ADD236R,0.0007X0.0310*%
%ADD237R,0.0007X0.0502*%
%ADD238R,0.0007X0.0297*%
%ADD239R,0.0007X0.0495*%
%ADD240R,0.0007X0.0020*%
%ADD241R,0.0007X0.0198*%
%ADD242R,0.0007X0.0396*%
%ADD243R,0.0007X0.0125*%
%ADD244R,0.0007X0.0020*%
%ADD245R,0.0007X0.0403*%
%ADD246R,0.0007X0.0409*%
%ADD247R,0.0007X0.0026*%
%ADD248R,0.0007X0.0416*%
%ADD249R,0.0007X0.0033*%
%ADD250R,0.0007X0.0422*%
%ADD251R,0.0007X0.0033*%
%ADD252R,0.0007X0.0429*%
%ADD253R,0.0007X0.0442*%
%ADD254R,0.0007X0.0046*%
%ADD255R,0.0007X0.0455*%
%ADD256R,0.0007X0.0172*%
%ADD257R,0.0007X0.0469*%
%ADD258R,0.0007X0.0462*%
%ADD259R,0.0007X0.0449*%
%ADD260R,0.0007X0.0158*%
%ADD261R,0.0007X0.0436*%
%ADD262R,0.0007X0.0422*%
%ADD263R,0.0007X0.0416*%
%ADD264R,0.0007X0.0112*%
%ADD265R,0.0007X0.0079*%
%ADD266R,0.0007X0.0119*%
%ADD267R,0.0007X0.0297*%
%ADD268R,0.0007X0.0508*%
%ADD269R,0.0007X0.0086*%
%ADD270R,0.0007X0.0521*%
%ADD271R,0.0007X0.0317*%
%ADD272R,0.0007X0.0521*%
%ADD273R,0.0007X0.0323*%
%ADD274R,0.0007X0.0528*%
%ADD275R,0.0007X0.0383*%
%ADD276R,0.0007X0.0330*%
%ADD277R,0.0007X0.0106*%
%ADD278R,0.0007X0.0099*%
%ADD279R,0.0007X0.0271*%
%ADD280R,0.0007X0.0271*%
%ADD281R,0.0007X0.0119*%
%ADD282R,0.0007X0.0277*%
%ADD283R,0.0007X0.0277*%
%ADD284R,0.0007X0.0284*%
%ADD285R,0.0007X0.0086*%
%ADD286R,0.0007X0.0284*%
%ADD287R,0.0007X0.0304*%
%ADD288R,0.0007X0.0152*%
%ADD289R,0.0007X0.0317*%
%ADD290R,0.0007X0.0066*%
%ADD291R,0.0007X0.0337*%
%ADD292R,0.0007X0.0343*%
%ADD293R,0.0007X0.0356*%
%ADD294R,0.0007X0.0376*%
%ADD295R,0.0007X0.0389*%
%ADD296R,0.0007X0.0178*%
%ADD297R,0.0007X0.0409*%
%ADD298R,0.0007X0.0429*%
%ADD299R,0.0007X0.0482*%
%ADD300R,0.0007X0.0211*%
%ADD301R,0.0007X0.0581*%
%ADD302R,0.0007X0.0719*%
%ADD303R,0.0007X0.0541*%
%ADD304R,0.0007X0.0264*%
%ADD305R,0.0007X0.0231*%
%ADD306R,0.0007X0.0013*%
%ADD307R,0.0007X0.0073*%
%ADD308R,0.0007X0.0040*%
%ADD309R,0.0007X0.0026*%
%ADD310R,0.0007X0.0026*%
%ADD311R,0.0007X0.0040*%
%ADD312R,0.0007X0.0053*%
%ADD313R,0.0007X0.0073*%
%ADD314R,0.0007X0.0053*%
%ADD315R,0.0007X0.0033*%
%ADD316R,0.0007X0.0350*%
%ADD317R,0.0007X0.0350*%
%ADD318R,0.0007X0.0033*%
%ADD319R,0.0007X0.0191*%
%ADD320R,0.0007X0.0224*%
%ADD321R,0.0007X0.0218*%
%ADD322R,0.0007X0.0535*%
%ADD323R,0.0007X0.0264*%
%ADD324R,0.0007X0.1643*%
%ADD325R,0.0007X0.1617*%
%ADD326R,0.0007X0.1591*%
%ADD327R,0.0007X0.1558*%
%ADD328R,0.0007X0.1406*%
D10*
X001525Y000300D02*
X015902Y000300D01*
X015902Y001300D01*
X019650Y001300D01*
X019650Y015800D01*
X015902Y015800D01*
X015902Y016800D01*
X001525Y016800D01*
X001525Y015425D01*
X000150Y015425D01*
X000150Y011800D01*
X003150Y011800D01*
X003150Y005300D01*
X000150Y005300D01*
X000150Y001675D01*
X001525Y001675D01*
X001525Y000300D01*
X001949Y014450D02*
X001951Y014497D01*
X001957Y014543D01*
X001967Y014589D01*
X001980Y014634D01*
X001998Y014677D01*
X002019Y014719D01*
X002043Y014759D01*
X002071Y014796D01*
X002102Y014831D01*
X002136Y014864D01*
X002172Y014893D01*
X002211Y014919D01*
X002252Y014942D01*
X002295Y014961D01*
X002339Y014977D01*
X002384Y014989D01*
X002430Y014997D01*
X002477Y015001D01*
X002523Y015001D01*
X002570Y014997D01*
X002616Y014989D01*
X002661Y014977D01*
X002705Y014961D01*
X002748Y014942D01*
X002789Y014919D01*
X002828Y014893D01*
X002864Y014864D01*
X002898Y014831D01*
X002929Y014796D01*
X002957Y014759D01*
X002981Y014719D01*
X003002Y014677D01*
X003020Y014634D01*
X003033Y014589D01*
X003043Y014543D01*
X003049Y014497D01*
X003051Y014450D01*
X003049Y014403D01*
X003043Y014357D01*
X003033Y014311D01*
X003020Y014266D01*
X003002Y014223D01*
X002981Y014181D01*
X002957Y014141D01*
X002929Y014104D01*
X002898Y014069D01*
X002864Y014036D01*
X002828Y014007D01*
X002789Y013981D01*
X002748Y013958D01*
X002705Y013939D01*
X002661Y013923D01*
X002616Y013911D01*
X002570Y013903D01*
X002523Y013899D01*
X002477Y013899D01*
X002430Y013903D01*
X002384Y013911D01*
X002339Y013923D01*
X002295Y013939D01*
X002252Y013958D01*
X002211Y013981D01*
X002172Y014007D01*
X002136Y014036D01*
X002102Y014069D01*
X002071Y014104D01*
X002043Y014141D01*
X002019Y014181D01*
X001998Y014223D01*
X001980Y014266D01*
X001967Y014311D01*
X001957Y014357D01*
X001951Y014403D01*
X001949Y014450D01*
D11*
X005530Y011482D02*
X005530Y011302D01*
X005530Y011188D02*
X005800Y011188D01*
X005800Y011008D01*
X005800Y010893D02*
X005620Y010893D01*
X005530Y010803D01*
X005620Y010713D01*
X005800Y010713D01*
X005755Y010599D02*
X005800Y010553D01*
X005800Y010463D01*
X005755Y010418D01*
X005710Y010418D01*
X005665Y010463D01*
X005665Y010553D01*
X005620Y010599D01*
X005575Y010599D01*
X005530Y010553D01*
X005530Y010463D01*
X005575Y010418D01*
X005530Y010304D02*
X005800Y010304D01*
X005665Y010304D02*
X005665Y010124D01*
X005530Y010124D02*
X005800Y010124D01*
X005275Y009630D02*
X005230Y009675D01*
X005275Y009630D02*
X005275Y009540D01*
X005230Y009495D01*
X005185Y009495D01*
X005140Y009540D01*
X005140Y009630D01*
X005095Y009675D01*
X005050Y009675D01*
X005005Y009630D01*
X005005Y009540D01*
X005050Y009495D01*
X005230Y009380D02*
X005275Y009335D01*
X005275Y009290D01*
X005230Y009245D01*
X005005Y009245D01*
X005005Y009290D02*
X005005Y009200D01*
X005095Y009086D02*
X005005Y008996D01*
X005275Y008996D01*
X005275Y009086D02*
X005275Y008906D01*
X005230Y008175D02*
X005275Y008130D01*
X005275Y008040D01*
X005230Y007995D01*
X005185Y007995D01*
X005140Y008040D01*
X005140Y008130D01*
X005095Y008175D01*
X005050Y008175D01*
X005005Y008130D01*
X005005Y008040D01*
X005050Y007995D01*
X005230Y007880D02*
X005275Y007835D01*
X005275Y007790D01*
X005230Y007745D01*
X005005Y007745D01*
X005005Y007790D02*
X005005Y007700D01*
X005050Y007586D02*
X005005Y007541D01*
X005005Y007451D01*
X005050Y007406D01*
X005095Y007406D01*
X005275Y007586D01*
X005275Y007406D01*
X005650Y006925D02*
X007150Y006925D01*
X007150Y006425D01*
X005650Y006425D01*
X005650Y006925D01*
X005837Y006737D02*
X005962Y006737D01*
X005962Y006725D01*
X005837Y006725D01*
X005837Y006675D01*
X005962Y006675D01*
X005962Y006625D01*
X005837Y006625D01*
X005837Y006612D01*
X005962Y006612D01*
X005962Y006625D01*
X005962Y006675D02*
X005962Y006725D01*
X005837Y006737D02*
X005837Y006725D01*
X005837Y006675D02*
X005837Y006625D01*
X006275Y006550D02*
X007025Y006550D01*
X007025Y006800D01*
X006275Y006800D01*
X006275Y006550D01*
X006525Y006550D02*
X006775Y006550D01*
X006775Y006575D01*
X006525Y006575D01*
X006525Y006550D01*
X006525Y006575D02*
X006525Y006625D01*
X006775Y006625D01*
X006775Y006675D01*
X006525Y006675D01*
X006525Y006725D01*
X006775Y006725D01*
X006775Y006775D01*
X006525Y006775D01*
X006525Y006725D01*
X006525Y006675D02*
X006525Y006625D01*
X006525Y006775D02*
X006525Y006800D01*
X006775Y006800D01*
X006775Y006775D01*
X006775Y006725D02*
X006775Y006675D01*
X006775Y006625D02*
X006775Y006575D01*
X007150Y006175D02*
X005650Y006175D01*
X005650Y005675D01*
X007150Y005675D01*
X007150Y006175D01*
X006963Y005988D02*
X006838Y005988D01*
X006838Y005975D01*
X006838Y005925D01*
X006963Y005925D01*
X006963Y005875D01*
X006838Y005875D01*
X006838Y005863D01*
X006963Y005863D01*
X006963Y005875D01*
X006963Y005925D02*
X006963Y005975D01*
X006838Y005975D01*
X006838Y005925D02*
X006838Y005875D01*
X006963Y005975D02*
X006963Y005988D01*
X006525Y006050D02*
X006525Y005800D01*
X005775Y005800D01*
X005775Y006050D01*
X006525Y006050D01*
X006275Y006050D02*
X006025Y006050D01*
X006025Y006025D01*
X006275Y006025D01*
X006275Y006050D01*
X006275Y006025D02*
X006275Y005975D01*
X006025Y005975D01*
X006025Y005925D01*
X006275Y005925D01*
X006275Y005875D01*
X006025Y005875D01*
X006025Y005825D01*
X006275Y005825D01*
X006275Y005875D01*
X006275Y005925D02*
X006275Y005975D01*
X006275Y005825D02*
X006275Y005800D01*
X006025Y005800D01*
X006025Y005825D01*
X006025Y005875D02*
X006025Y005925D01*
X006025Y005975D02*
X006025Y006025D01*
X008355Y006345D02*
X008400Y006300D01*
X008445Y006300D01*
X008490Y006345D01*
X008490Y006435D01*
X008445Y006480D01*
X008400Y006480D01*
X008355Y006435D01*
X008355Y006345D01*
X008490Y006345D02*
X008535Y006300D01*
X008580Y006300D01*
X008625Y006345D01*
X008625Y006435D01*
X008580Y006480D01*
X008535Y006480D01*
X008490Y006435D01*
X008490Y006595D02*
X008535Y006640D01*
X008535Y006775D01*
X008625Y006775D02*
X008355Y006775D01*
X008355Y006640D01*
X008400Y006595D01*
X008490Y006595D01*
X008535Y006685D02*
X008625Y006595D01*
X008625Y005525D02*
X008355Y005525D01*
X008355Y005390D01*
X008400Y005345D01*
X008490Y005345D01*
X008535Y005390D01*
X008535Y005525D01*
X008535Y005435D02*
X008625Y005345D01*
X008625Y005230D02*
X008580Y005230D01*
X008400Y005050D01*
X008355Y005050D01*
X008355Y005230D01*
X008355Y002925D02*
X008355Y002790D01*
X008400Y002745D01*
X008490Y002745D01*
X008535Y002790D01*
X008535Y002925D01*
X008625Y002925D02*
X008355Y002925D01*
X008535Y002835D02*
X008625Y002745D01*
X008625Y002630D02*
X008625Y002450D01*
X008625Y002540D02*
X008355Y002540D01*
X008445Y002630D01*
X008400Y002336D02*
X008355Y002291D01*
X008355Y002201D01*
X008400Y002156D01*
X008445Y002156D01*
X008625Y002336D01*
X008625Y002156D01*
X008625Y001675D02*
X008355Y001675D01*
X008355Y001540D01*
X008400Y001495D01*
X008490Y001495D01*
X008535Y001540D01*
X008535Y001675D01*
X008535Y001585D02*
X008625Y001495D01*
X008625Y001380D02*
X008625Y001200D01*
X008625Y001290D02*
X008355Y001290D01*
X008445Y001380D01*
X008445Y001086D02*
X008355Y000996D01*
X008625Y000996D01*
X008625Y001086D02*
X008625Y000906D01*
X013740Y004075D02*
X013740Y004345D01*
X013875Y004210D01*
X013695Y004210D01*
X013989Y004345D02*
X014170Y004345D01*
X014080Y004345D02*
X014080Y004075D01*
X014080Y008075D02*
X014080Y008345D01*
X014170Y008345D02*
X013989Y008345D01*
X013875Y008300D02*
X013830Y008345D01*
X013740Y008345D01*
X013695Y008300D01*
X013695Y008255D01*
X013875Y008075D01*
X013695Y008075D01*
X013740Y012075D02*
X013830Y012075D01*
X013875Y012120D01*
X013785Y012210D02*
X013740Y012210D01*
X013695Y012165D01*
X013695Y012120D01*
X013740Y012075D01*
X013740Y012210D02*
X013695Y012255D01*
X013695Y012300D01*
X013740Y012345D01*
X013830Y012345D01*
X013875Y012300D01*
X013989Y012345D02*
X014170Y012345D01*
X014080Y012345D02*
X014080Y012075D01*
X014080Y016075D02*
X014080Y016345D01*
X014170Y016345D02*
X013989Y016345D01*
X013875Y016255D02*
X013785Y016345D01*
X013785Y016075D01*
X013875Y016075D02*
X013695Y016075D01*
X008625Y014775D02*
X008355Y014775D01*
X008355Y014640D01*
X008400Y014595D01*
X008490Y014595D01*
X008535Y014640D01*
X008535Y014775D01*
X008535Y014685D02*
X008625Y014595D01*
X008580Y014480D02*
X008490Y014480D01*
X008490Y014345D01*
X008535Y014300D01*
X008580Y014300D01*
X008625Y014345D01*
X008625Y014435D01*
X008580Y014480D01*
X008490Y014480D02*
X008400Y014390D01*
X008355Y014300D01*
X008355Y013525D02*
X008355Y013390D01*
X008400Y013345D01*
X008490Y013345D01*
X008535Y013390D01*
X008535Y013525D01*
X008625Y013525D02*
X008355Y013525D01*
X008535Y013435D02*
X008625Y013345D01*
X008580Y013230D02*
X008625Y013185D01*
X008625Y013095D01*
X008580Y013050D01*
X008490Y013050D01*
X008445Y013095D01*
X008445Y013140D01*
X008490Y013230D01*
X008355Y013230D01*
X008355Y013050D01*
X008355Y010925D02*
X008355Y010790D01*
X008400Y010745D01*
X008490Y010745D01*
X008535Y010790D01*
X008535Y010925D01*
X008625Y010925D02*
X008355Y010925D01*
X008535Y010835D02*
X008625Y010745D01*
X008625Y010630D02*
X008625Y010450D01*
X008625Y010540D02*
X008355Y010540D01*
X008445Y010630D01*
X008400Y010336D02*
X008355Y010291D01*
X008355Y010201D01*
X008400Y010156D01*
X008580Y010336D01*
X008625Y010291D01*
X008625Y010201D01*
X008580Y010156D01*
X008400Y010156D01*
X008400Y010336D02*
X008580Y010336D01*
X008625Y009525D02*
X008355Y009525D01*
X008355Y009390D01*
X008400Y009345D01*
X008490Y009345D01*
X008535Y009390D01*
X008535Y009525D01*
X008535Y009435D02*
X008625Y009345D01*
X008580Y009230D02*
X008625Y009185D01*
X008625Y009095D01*
X008580Y009050D01*
X008400Y009050D01*
X008355Y009095D01*
X008355Y009185D01*
X008400Y009230D01*
X008445Y009230D01*
X008490Y009185D01*
X008490Y009050D01*
X005665Y010713D02*
X005665Y010893D01*
X005665Y011392D02*
X005665Y011482D01*
X005800Y011482D02*
X005530Y011482D01*
D12*
X006085Y011194D02*
X006715Y011194D01*
X006715Y011193D02*
X006731Y011188D01*
X006747Y011180D01*
X006761Y011170D01*
X006773Y011158D01*
X006783Y011143D01*
X006790Y011127D01*
X006794Y011110D01*
X006795Y011093D01*
X006793Y011075D01*
X006793Y010525D02*
X006795Y010507D01*
X006794Y010490D01*
X006790Y010473D01*
X006783Y010457D01*
X006773Y010442D01*
X006761Y010430D01*
X006747Y010420D01*
X006731Y010412D01*
X006715Y010407D01*
X006715Y010406D02*
X006085Y010406D01*
X006085Y010407D02*
X006069Y010412D01*
X006053Y010420D01*
X006039Y010430D01*
X006027Y010442D01*
X006017Y010457D01*
X006010Y010473D01*
X006006Y010490D01*
X006005Y010507D01*
X006007Y010525D01*
X006007Y011075D02*
X006005Y011093D01*
X006006Y011110D01*
X006010Y011127D01*
X006017Y011143D01*
X006027Y011158D01*
X006039Y011170D01*
X006053Y011180D01*
X006069Y011188D01*
X006085Y011193D01*
X012432Y011050D02*
X012432Y010050D01*
X012432Y009260D02*
X014871Y009260D01*
X014871Y007840D02*
X012432Y007840D01*
X012432Y007050D02*
X012432Y006050D01*
X012432Y005260D02*
X014871Y005260D01*
X014871Y003840D02*
X012432Y003840D01*
X012432Y003050D02*
X012432Y002050D01*
X012432Y001260D02*
X014871Y001260D01*
X014871Y011840D02*
X012432Y011840D01*
X012432Y013260D02*
X014871Y013260D01*
X012432Y014050D02*
X012432Y015050D01*
X012432Y015840D02*
X014871Y015840D01*
D13*
X012242Y014550D03*
X012242Y010550D03*
X012242Y006550D03*
X012242Y002550D03*
D14*
X007594Y002591D03*
X007028Y003491D03*
X007017Y003503D03*
X005661Y003091D03*
D15*
X007583Y002642D03*
D16*
X007572Y002692D03*
X006006Y003703D03*
X006028Y003758D03*
X006072Y003847D03*
X006094Y003903D03*
X005906Y003492D03*
X005883Y003447D03*
X005861Y003403D03*
D17*
X007561Y002714D03*
D18*
X007550Y002764D03*
D19*
X007539Y002814D03*
D20*
X007528Y002864D03*
D21*
X007517Y002909D03*
D22*
X007506Y002937D03*
X007372Y003659D03*
D23*
X007494Y002987D03*
D24*
X007483Y003031D03*
X007394Y003553D03*
D25*
X007472Y003087D03*
D26*
X007461Y003108D03*
D27*
X007450Y003158D03*
D28*
X007439Y003208D03*
D29*
X007428Y003392D03*
D30*
X007106Y004003D03*
X007094Y004003D03*
X007083Y004003D03*
X007072Y004003D03*
X007061Y004003D03*
X006639Y003947D03*
X006628Y003947D03*
X006617Y003947D03*
X006606Y003947D03*
X006594Y003947D03*
X006539Y003936D03*
X006528Y003936D03*
X006517Y003936D03*
X006506Y003936D03*
X006494Y003936D03*
X006328Y003914D03*
X006239Y003903D03*
X007383Y002547D03*
X007394Y002547D03*
X007406Y002547D03*
X007417Y002547D03*
X007428Y002547D03*
X007339Y002536D03*
X007328Y002536D03*
X007317Y002536D03*
X007306Y002536D03*
X007294Y002536D03*
X007283Y002536D03*
X007139Y002514D03*
X007128Y002514D03*
X007094Y002503D03*
X007083Y002503D03*
X007072Y002503D03*
X007061Y002503D03*
X007039Y002503D03*
X006639Y002447D03*
X006628Y002447D03*
X006617Y002447D03*
X006606Y002447D03*
X006594Y002447D03*
X006539Y002436D03*
X006528Y002436D03*
X006517Y002436D03*
X006506Y002436D03*
X006494Y002436D03*
D31*
X007417Y003459D03*
D32*
X007406Y003498D03*
D33*
X007383Y003603D03*
D34*
X007139Y004009D03*
X007128Y004009D03*
X007117Y004009D03*
X007039Y003998D03*
X007028Y003998D03*
X007017Y003998D03*
X007006Y003998D03*
X006672Y003953D03*
X006661Y003953D03*
X006583Y003941D03*
X006572Y003941D03*
X006561Y003941D03*
X006317Y003909D03*
X006306Y003909D03*
X006294Y003909D03*
X006283Y003909D03*
X006272Y003909D03*
X006261Y003909D03*
X006228Y003898D03*
X006561Y002441D03*
X006572Y002441D03*
X006583Y002441D03*
X006661Y002453D03*
X006672Y002453D03*
X006683Y002453D03*
X006439Y002253D03*
X007006Y002498D03*
X007017Y002498D03*
X007028Y002498D03*
X007106Y002509D03*
X007117Y002509D03*
X007361Y002541D03*
X007372Y002541D03*
D35*
X007361Y003686D03*
D36*
X007350Y003741D03*
D37*
X006650Y003953D03*
X006550Y003941D03*
X006250Y003909D03*
X007350Y002541D03*
D38*
X007339Y003791D03*
D39*
X007328Y003841D03*
D40*
X007317Y003891D03*
D41*
X007306Y003920D03*
X007128Y003187D03*
X005983Y003664D03*
X005928Y003542D03*
X005894Y003464D03*
X005828Y003331D03*
X005739Y003131D03*
D42*
X005706Y003114D03*
X007294Y003970D03*
D43*
X007283Y004025D03*
X007061Y003425D03*
X006428Y002936D03*
X006439Y002914D03*
D44*
X006472Y002431D03*
X006483Y002431D03*
X007161Y002520D03*
X007172Y002520D03*
X007261Y002531D03*
X007272Y002531D03*
X007194Y004020D03*
X007183Y004020D03*
X007172Y004020D03*
X007161Y004020D03*
X007261Y004031D03*
X007272Y004031D03*
X006483Y003931D03*
X006472Y003931D03*
X006461Y003931D03*
X006372Y003920D03*
X006361Y003920D03*
X006339Y003920D03*
D45*
X007250Y004025D03*
X006450Y002425D03*
D46*
X007150Y002520D03*
X007250Y002531D03*
X006450Y003931D03*
X006350Y003920D03*
D47*
X006383Y003925D03*
X006394Y003925D03*
X006406Y003925D03*
X006417Y003925D03*
X006428Y003925D03*
X006439Y003925D03*
X007206Y004025D03*
X007217Y004025D03*
X007228Y004025D03*
X007239Y004025D03*
X007239Y002525D03*
X007228Y002525D03*
X007217Y002525D03*
X007206Y002525D03*
X007194Y002525D03*
X007183Y002525D03*
X006461Y002425D03*
X006439Y002425D03*
D48*
X007161Y003187D03*
D49*
X007050Y003447D03*
X007050Y004003D03*
X007150Y004014D03*
X007050Y002503D03*
X006650Y002447D03*
X006550Y002436D03*
X006450Y002247D03*
D50*
X006150Y002553D03*
X005950Y002797D03*
X007150Y003186D03*
D51*
X007139Y003186D03*
X006217Y003986D03*
X006206Y003986D03*
D52*
X007117Y003186D03*
D53*
X007106Y003192D03*
D54*
X007094Y003197D03*
X005783Y003153D03*
D55*
X006217Y002470D03*
X006228Y002459D03*
X007083Y003359D03*
D56*
X007083Y003020D03*
X005683Y003109D03*
D57*
X006361Y003414D03*
X006394Y003436D03*
X007072Y003403D03*
D58*
X007072Y002987D03*
D59*
X007061Y002959D03*
X006994Y002491D03*
X006983Y002491D03*
X006972Y002491D03*
X006961Y002491D03*
X006939Y002491D03*
X006894Y002480D03*
X006883Y002480D03*
X006872Y002480D03*
X006861Y002480D03*
X006839Y002480D03*
X006806Y002470D03*
X006794Y002470D03*
X006783Y002470D03*
X006772Y002470D03*
X006761Y002470D03*
X006728Y002459D03*
X006717Y002459D03*
X006706Y002459D03*
X006694Y002459D03*
X006406Y003459D03*
X006683Y003959D03*
X006694Y003959D03*
X006794Y003970D03*
X006861Y003980D03*
X006872Y003980D03*
X006883Y003980D03*
X006894Y003980D03*
X006961Y003991D03*
X006972Y003991D03*
X006983Y003991D03*
X006994Y003991D03*
X006228Y004070D03*
D60*
X007050Y002941D03*
D61*
X007039Y003475D03*
D62*
X007039Y002925D03*
D63*
X007028Y002908D03*
X007017Y002897D03*
X006483Y002853D03*
X006406Y002953D03*
X006461Y002242D03*
D64*
X007006Y002881D03*
X006339Y003370D03*
X006983Y003537D03*
X007006Y003514D03*
D65*
X006994Y003525D03*
D66*
X006972Y003553D03*
X006961Y003553D03*
X006939Y003575D03*
X006994Y002875D03*
X006972Y002853D03*
X006472Y002242D03*
D67*
X006883Y002814D03*
X006939Y002837D03*
X006983Y002859D03*
X006394Y002959D03*
X006906Y003592D03*
X006917Y003592D03*
X006928Y003581D03*
D68*
X006883Y003603D03*
X006961Y002848D03*
X006839Y002803D03*
X006494Y002848D03*
D69*
X006750Y002470D03*
X006850Y002480D03*
X006950Y002491D03*
X006350Y003391D03*
X006850Y003980D03*
X006950Y003991D03*
D70*
X006950Y003564D03*
X006250Y004086D03*
X005650Y003086D03*
D71*
X006950Y002837D03*
D72*
X006928Y002486D03*
X006917Y002486D03*
X006906Y002486D03*
X006783Y003964D03*
X006772Y003964D03*
X006761Y003964D03*
X006739Y003964D03*
X006728Y003964D03*
X006717Y003964D03*
X006706Y003964D03*
X006906Y003986D03*
X006917Y003986D03*
X006928Y003986D03*
X006939Y003986D03*
D73*
X006817Y003620D03*
X006806Y003620D03*
X006783Y003620D03*
X006772Y003620D03*
X006761Y003620D03*
X006739Y003620D03*
X006728Y003620D03*
X006717Y003620D03*
X006928Y002831D03*
X006906Y002820D03*
X006894Y002820D03*
D74*
X006917Y002825D03*
D75*
X006872Y002808D03*
X006861Y002808D03*
X006828Y002797D03*
X006428Y003497D03*
X006861Y003608D03*
X006872Y003608D03*
X006894Y003597D03*
X006261Y004097D03*
D76*
X006850Y003608D03*
X006850Y002808D03*
D77*
X006828Y002475D03*
X006817Y002475D03*
X006817Y003975D03*
X006828Y003975D03*
X006839Y003975D03*
X006806Y003975D03*
D78*
X006828Y003614D03*
X006839Y003614D03*
D79*
X006817Y002814D03*
X006494Y002247D03*
D80*
X006794Y003625D03*
D81*
X006750Y003964D03*
D82*
X006750Y003620D03*
D83*
X006472Y002864D03*
X006739Y002464D03*
D84*
X006517Y002831D03*
X006439Y003520D03*
D85*
X006506Y002830D03*
D86*
X006328Y003359D03*
X006483Y002248D03*
D87*
X006461Y002870D03*
D88*
X006450Y002892D03*
D89*
X006428Y002330D03*
X006372Y002330D03*
D90*
X006417Y003475D03*
D91*
X006417Y002941D03*
D92*
X006417Y002325D03*
D93*
X006406Y002320D03*
X006394Y002320D03*
X006383Y002320D03*
X005728Y003131D03*
X006017Y003731D03*
X006106Y003920D03*
D94*
X006372Y003431D03*
X006383Y003431D03*
D95*
X006383Y002970D03*
D96*
X006372Y002975D03*
D97*
X006361Y002331D03*
X005717Y003120D03*
D98*
X006350Y002337D03*
D99*
X006339Y002342D03*
D100*
X006328Y002348D03*
D101*
X006317Y003336D03*
X006283Y004114D03*
D102*
X005994Y002748D03*
X006317Y002359D03*
D103*
X006306Y002364D03*
X006283Y002386D03*
X006272Y002397D03*
X006206Y002486D03*
X006194Y002497D03*
X006139Y002564D03*
X006128Y002586D03*
X006117Y002597D03*
X006072Y002653D03*
X006061Y002664D03*
X006039Y002686D03*
X006028Y002697D03*
X005983Y002764D03*
X005961Y002786D03*
X005906Y002853D03*
X005883Y002886D03*
X005872Y002897D03*
X005828Y002953D03*
X005817Y002964D03*
D104*
X005894Y002875D03*
X005972Y002775D03*
X006294Y002375D03*
D105*
X006272Y004109D03*
D106*
X005839Y002941D03*
X005861Y002909D03*
X005917Y002841D03*
X005928Y002830D03*
X006006Y002730D03*
X006017Y002720D03*
X006083Y002630D03*
X006094Y002620D03*
X006106Y002609D03*
X006161Y002541D03*
X006172Y002530D03*
X006183Y002520D03*
X006239Y002441D03*
X006261Y002420D03*
D107*
X006250Y002430D03*
D108*
X006239Y004081D03*
D109*
X006194Y003991D03*
X006183Y003991D03*
X006172Y003991D03*
D110*
X006161Y003998D03*
X006139Y003998D03*
X006117Y003941D03*
D111*
X006150Y003998D03*
D112*
X006128Y003970D03*
X006039Y003781D03*
X005994Y003681D03*
X005939Y003570D03*
D113*
X006083Y003875D03*
D114*
X006061Y003825D03*
X005972Y003636D03*
X005961Y003614D03*
X005917Y003514D03*
X005872Y003425D03*
D115*
X006050Y003803D03*
D116*
X006050Y002675D03*
D117*
X005950Y003586D03*
D118*
X005939Y002814D03*
D119*
X005850Y003370D03*
D120*
X005850Y002925D03*
D121*
X005817Y003298D03*
X005839Y003353D03*
D122*
X005806Y003164D03*
D123*
X005794Y003158D03*
D124*
X005772Y003148D03*
D125*
X005761Y003136D03*
D126*
X005750Y003136D03*
D127*
X005694Y003114D03*
D128*
X005672Y003103D03*
D129*
X005470Y005755D02*
X005470Y006095D01*
X005300Y006095D01*
X005243Y006039D01*
X005243Y005925D01*
X005300Y005868D01*
X005470Y005868D01*
X005357Y005868D02*
X005243Y005755D01*
X005102Y005812D02*
X005045Y005755D01*
X004932Y005755D01*
X004875Y005812D01*
X004875Y005925D01*
X004988Y005925D01*
X004875Y006039D02*
X004932Y006095D01*
X005045Y006095D01*
X005102Y006039D01*
X005102Y005812D01*
X004733Y005755D02*
X004563Y005755D01*
X004507Y005812D01*
X004507Y005868D01*
X004563Y005925D01*
X004733Y005925D01*
X004563Y005925D02*
X004507Y005982D01*
X004507Y006039D01*
X004563Y006095D01*
X004733Y006095D01*
X004733Y005755D01*
X004733Y006505D02*
X004563Y006505D01*
X004507Y006562D01*
X004507Y006618D01*
X004563Y006675D01*
X004733Y006675D01*
X004875Y006675D02*
X004875Y006562D01*
X004932Y006505D01*
X005045Y006505D01*
X005102Y006562D01*
X005102Y006789D01*
X005045Y006845D01*
X004932Y006845D01*
X004875Y006789D01*
X004875Y006675D02*
X004988Y006675D01*
X005243Y006675D02*
X005243Y006789D01*
X005300Y006845D01*
X005470Y006845D01*
X005470Y006505D01*
X005470Y006618D02*
X005300Y006618D01*
X005243Y006675D01*
X005357Y006618D02*
X005243Y006505D01*
X004733Y006505D02*
X004733Y006845D01*
X004563Y006845D01*
X004507Y006789D01*
X004507Y006732D01*
X004563Y006675D01*
X004365Y006505D02*
X004252Y006618D01*
X004138Y006505D01*
X004138Y006845D01*
X004365Y006845D02*
X004365Y006505D01*
X005450Y007500D02*
X005450Y008100D01*
X005452Y008117D01*
X005456Y008134D01*
X005463Y008150D01*
X005473Y008164D01*
X005486Y008177D01*
X005500Y008187D01*
X005516Y008194D01*
X005533Y008198D01*
X005550Y008200D01*
X007250Y008200D01*
X007267Y008198D01*
X007284Y008194D01*
X007300Y008187D01*
X007314Y008177D01*
X007327Y008164D01*
X007337Y008150D01*
X007344Y008134D01*
X007348Y008117D01*
X007350Y008100D01*
X007350Y007500D01*
X007348Y007483D01*
X007344Y007466D01*
X007337Y007450D01*
X007327Y007436D01*
X007314Y007423D01*
X007300Y007413D01*
X007284Y007406D01*
X007267Y007402D01*
X007250Y007400D01*
X005550Y007400D01*
X005533Y007402D01*
X005516Y007406D01*
X005500Y007413D01*
X005486Y007423D01*
X005473Y007436D01*
X005463Y007450D01*
X005456Y007466D01*
X005452Y007483D01*
X005450Y007500D01*
X005550Y008900D02*
X007250Y008900D01*
X007267Y008902D01*
X007284Y008906D01*
X007300Y008913D01*
X007314Y008923D01*
X007327Y008936D01*
X007337Y008950D01*
X007344Y008966D01*
X007348Y008983D01*
X007350Y009000D01*
X007350Y009600D01*
X007348Y009617D01*
X007344Y009634D01*
X007337Y009650D01*
X007327Y009664D01*
X007314Y009677D01*
X007300Y009687D01*
X007284Y009694D01*
X007267Y009698D01*
X007250Y009700D01*
X005550Y009700D01*
X005533Y009698D01*
X005516Y009694D01*
X005500Y009687D01*
X005486Y009677D01*
X005473Y009664D01*
X005463Y009650D01*
X005456Y009634D01*
X005452Y009617D01*
X005450Y009600D01*
X005450Y009000D01*
X005452Y008983D01*
X005456Y008966D01*
X005463Y008950D01*
X005473Y008936D01*
X005486Y008923D01*
X005500Y008913D01*
X005516Y008906D01*
X005533Y008902D01*
X005550Y008900D01*
D130*
X007511Y013948D03*
D131*
X007505Y013948D03*
X005815Y013948D03*
D132*
X005822Y013948D03*
X007498Y013948D03*
D133*
X007492Y013948D03*
X005828Y013948D03*
D134*
X007485Y013948D03*
D135*
X007478Y013948D03*
X005842Y013948D03*
D136*
X007472Y013948D03*
D137*
X007465Y013948D03*
X005855Y013948D03*
D138*
X007459Y013945D03*
D139*
X007452Y013948D03*
X005868Y013948D03*
D140*
X005875Y013948D03*
X007445Y013948D03*
D141*
X007439Y013948D03*
D142*
X007432Y013948D03*
X005888Y013948D03*
D143*
X005894Y013948D03*
X007426Y013948D03*
D144*
X007419Y013948D03*
X007399Y013948D03*
X005914Y013948D03*
X005901Y013948D03*
D145*
X005908Y013948D03*
X005921Y013948D03*
X007406Y013948D03*
X007412Y013948D03*
D146*
X007393Y013948D03*
X007379Y013948D03*
X007373Y013948D03*
X005941Y013948D03*
X005927Y013948D03*
D147*
X005934Y013948D03*
X007386Y013948D03*
D148*
X007366Y013948D03*
X007346Y013948D03*
X007327Y013948D03*
X007313Y013948D03*
X007294Y013948D03*
X007274Y013948D03*
X007254Y013948D03*
X007234Y013948D03*
X007221Y013948D03*
X007201Y013948D03*
X007181Y013948D03*
X007162Y013948D03*
X007148Y013948D03*
X007129Y013948D03*
X006574Y013948D03*
X006561Y013948D03*
X006541Y013948D03*
X006521Y013948D03*
X006502Y013948D03*
X006488Y013948D03*
X006469Y013948D03*
X006449Y013948D03*
X006429Y013948D03*
X006409Y013948D03*
X006396Y013948D03*
X006376Y013948D03*
X006356Y013948D03*
X006337Y013948D03*
X006323Y013948D03*
X006304Y013948D03*
D149*
X006310Y013948D03*
X006317Y013948D03*
X006330Y013948D03*
X006343Y013948D03*
X006350Y013948D03*
X006363Y013948D03*
X006370Y013948D03*
X006383Y013948D03*
X006389Y013948D03*
X006403Y013948D03*
X006416Y013948D03*
X006422Y013948D03*
X006436Y013948D03*
X006442Y013948D03*
X006455Y013948D03*
X006462Y013948D03*
X006475Y013948D03*
X006482Y013948D03*
X006495Y013948D03*
X006508Y013948D03*
X006515Y013948D03*
X006528Y013948D03*
X006535Y013948D03*
X006548Y013948D03*
X006554Y013948D03*
X006568Y013948D03*
X006581Y013948D03*
X006587Y013948D03*
X006297Y013948D03*
X006290Y013948D03*
X007122Y013948D03*
X007135Y013948D03*
X007142Y013948D03*
X007155Y013948D03*
X007168Y013948D03*
X007175Y013948D03*
X007188Y013948D03*
X007195Y013948D03*
X007208Y013948D03*
X007214Y013948D03*
X007228Y013948D03*
X007241Y013948D03*
X007247Y013948D03*
X007261Y013948D03*
X007267Y013948D03*
X007280Y013948D03*
X007287Y013948D03*
X007300Y013948D03*
X007307Y013948D03*
X007320Y013948D03*
X007333Y013948D03*
X007340Y013948D03*
X007353Y013948D03*
X007360Y013948D03*
D150*
X007115Y014687D03*
D151*
X007115Y014192D03*
D152*
X007115Y013453D03*
D153*
X007109Y014704D03*
X006891Y014704D03*
X006871Y014704D03*
X006851Y014704D03*
X006832Y014704D03*
X006818Y014704D03*
X006799Y014704D03*
D154*
X007109Y014357D03*
X007036Y013585D03*
X006997Y013183D03*
X006983Y013183D03*
X006211Y013183D03*
D155*
X006231Y013186D03*
X006007Y013186D03*
X007016Y013186D03*
X007109Y014031D03*
X006007Y014446D03*
D156*
X007109Y013625D03*
D157*
X007069Y013592D03*
X007109Y013202D03*
X006264Y013202D03*
X005954Y014060D03*
D158*
X006640Y013374D03*
X006845Y013651D03*
X006766Y014714D03*
X007102Y014714D03*
D159*
X007102Y014348D03*
X006858Y013635D03*
X007010Y013582D03*
X006937Y013173D03*
X006931Y013173D03*
X006178Y014460D03*
X006165Y014460D03*
X006073Y014460D03*
X006059Y014460D03*
X006053Y014460D03*
D160*
X006040Y014456D03*
X006033Y014456D03*
X006185Y014456D03*
X006198Y014456D03*
X006198Y014720D03*
X006205Y014720D03*
X006218Y014720D03*
X006224Y014720D03*
X006238Y014720D03*
X006251Y014720D03*
X006257Y014720D03*
X006271Y014720D03*
X006277Y014720D03*
X006185Y014720D03*
X006178Y014720D03*
X006165Y014720D03*
X006152Y014720D03*
X006145Y014720D03*
X006132Y014720D03*
X006125Y014720D03*
X006112Y014720D03*
X006106Y014720D03*
X006092Y014720D03*
X006086Y014720D03*
X006073Y014720D03*
X006059Y014720D03*
X006053Y014720D03*
X006040Y014720D03*
X006033Y014720D03*
X006020Y014720D03*
X006013Y014720D03*
X006000Y014720D03*
X005987Y014720D03*
X005980Y014720D03*
X005967Y014720D03*
X005960Y014720D03*
X006620Y014720D03*
X006931Y014720D03*
X007096Y014720D03*
X007102Y014041D03*
X007023Y013585D03*
X006660Y013374D03*
X006950Y013176D03*
X006957Y013176D03*
X006185Y013176D03*
X006178Y013176D03*
X006059Y013176D03*
X006053Y013176D03*
X005967Y014060D03*
D161*
X007102Y013618D03*
D162*
X007102Y013199D03*
X007096Y013199D03*
X006257Y013199D03*
X006277Y014064D03*
D163*
X006601Y013711D03*
X006878Y013618D03*
X006970Y013585D03*
X006977Y013585D03*
X006937Y013876D03*
X007096Y014338D03*
X006937Y014542D03*
X006878Y013163D03*
X006865Y013163D03*
D164*
X006911Y013169D03*
X006917Y013169D03*
X007003Y013585D03*
X007096Y014047D03*
X006627Y014727D03*
X006152Y014463D03*
X006145Y014463D03*
X006132Y014463D03*
X006125Y014463D03*
X006112Y014463D03*
X006106Y014463D03*
X006092Y014463D03*
X006086Y014463D03*
D165*
X007096Y013608D03*
D166*
X006904Y013169D03*
X006139Y014463D03*
X006119Y014463D03*
X006099Y014463D03*
X006079Y014463D03*
X007089Y014727D03*
D167*
X006964Y014536D03*
X007089Y014331D03*
X006964Y013869D03*
X006924Y013598D03*
X006944Y013592D03*
X006726Y013374D03*
X006818Y013156D03*
X006832Y013156D03*
D168*
X006706Y013374D03*
X005954Y013526D03*
X007089Y014054D03*
D169*
X007089Y013602D03*
X005954Y014414D03*
D170*
X005974Y014433D03*
X005974Y013199D03*
X007089Y013199D03*
D171*
X006700Y013374D03*
X006693Y013374D03*
X006277Y013526D03*
X006640Y014734D03*
X007082Y014734D03*
D172*
X007082Y014328D03*
X006970Y013872D03*
X006805Y013635D03*
X006733Y013377D03*
X006805Y013153D03*
X006812Y013153D03*
X005987Y014057D03*
X006277Y014348D03*
D173*
X006251Y014060D03*
X006746Y013869D03*
X006752Y013869D03*
X006911Y013598D03*
X006917Y013598D03*
X006937Y013592D03*
X006719Y013374D03*
X006825Y013156D03*
X006838Y013156D03*
X007082Y014060D03*
X006752Y014536D03*
X006746Y014536D03*
D174*
X006950Y014202D03*
X007082Y013602D03*
X006092Y013813D03*
X006086Y013813D03*
X006073Y013813D03*
X005960Y014420D03*
D175*
X005980Y014437D03*
X007063Y013592D03*
X007076Y013196D03*
X007082Y013196D03*
X006251Y013196D03*
X006165Y013196D03*
X005980Y013196D03*
D176*
X006713Y013377D03*
X006845Y013160D03*
X006858Y013160D03*
X006950Y013588D03*
X006957Y013588D03*
X006931Y013595D03*
X006884Y013615D03*
X006812Y013635D03*
X006766Y013872D03*
X006950Y013872D03*
X006957Y013872D03*
X006931Y014545D03*
X007076Y014737D03*
X005980Y014057D03*
D177*
X006238Y014057D03*
X005967Y013747D03*
X006271Y014354D03*
X007076Y014321D03*
X006792Y013628D03*
X006772Y013146D03*
X006766Y013146D03*
D178*
X006607Y013701D03*
X007076Y014064D03*
X006970Y014539D03*
X006660Y014744D03*
X005960Y013754D03*
D179*
X007076Y013595D03*
D180*
X006904Y013605D03*
X007069Y014740D03*
D181*
X007069Y014318D03*
X006231Y014060D03*
X006739Y013143D03*
D182*
X006779Y013150D03*
X006739Y013374D03*
X006614Y013691D03*
X006264Y013539D03*
X006244Y014060D03*
X007069Y014067D03*
X006667Y014747D03*
D183*
X007069Y013196D03*
D184*
X006792Y013150D03*
X006785Y013150D03*
X006746Y013374D03*
X006733Y013869D03*
X006977Y013869D03*
X006977Y014536D03*
X006733Y014536D03*
X007063Y014747D03*
X005967Y013539D03*
D185*
X005987Y013549D03*
X006073Y013397D03*
X006165Y013397D03*
X005980Y013740D03*
X006000Y014057D03*
X006073Y014229D03*
X006086Y014229D03*
X006092Y014229D03*
X006106Y014229D03*
X006112Y014229D03*
X006125Y014229D03*
X006132Y014229D03*
X006145Y014229D03*
X006152Y014229D03*
X006627Y013681D03*
X006772Y013628D03*
X006733Y013140D03*
X006719Y013140D03*
X007049Y014077D03*
X007063Y014315D03*
X006752Y014757D03*
X006700Y014757D03*
X006693Y014757D03*
D186*
X006680Y014753D03*
X007043Y014753D03*
X007063Y014074D03*
X006785Y013631D03*
X006620Y013684D03*
X006766Y013374D03*
X006772Y013374D03*
X006251Y013546D03*
X005980Y013546D03*
D187*
X005987Y013193D03*
X006073Y013193D03*
X006601Y013377D03*
X007049Y013193D03*
X007063Y013193D03*
X005987Y014440D03*
D188*
X007056Y014750D03*
X005974Y013542D03*
D189*
X006066Y013394D03*
X006172Y013394D03*
X006634Y013671D03*
X006779Y013374D03*
X006706Y013136D03*
X007056Y014311D03*
D190*
X007056Y014077D03*
X006779Y013628D03*
X006726Y013140D03*
X006244Y013549D03*
X006007Y014057D03*
X006079Y014229D03*
X006099Y014229D03*
X006119Y014229D03*
X006139Y014229D03*
X006158Y014229D03*
X006264Y014361D03*
X007036Y014757D03*
D191*
X007056Y013588D03*
X007056Y013193D03*
X006244Y013193D03*
D192*
X006257Y013542D03*
X006752Y013377D03*
X006673Y014750D03*
X006937Y014750D03*
X007049Y014750D03*
D193*
X006719Y014532D03*
X007049Y014308D03*
X006990Y013872D03*
X006640Y013668D03*
D194*
X007049Y013585D03*
X005960Y014060D03*
X006000Y014443D03*
X006607Y014707D03*
D195*
X006746Y014767D03*
X007003Y014767D03*
X007043Y014305D03*
X007030Y014087D03*
X007023Y014087D03*
X006746Y013631D03*
X006733Y013631D03*
X006647Y013664D03*
X006805Y013374D03*
X006812Y013374D03*
X006673Y013130D03*
X006660Y013130D03*
X006218Y014060D03*
X006251Y014371D03*
D196*
X006224Y014060D03*
X006238Y013552D03*
X007043Y014080D03*
X007030Y014760D03*
X007023Y014760D03*
X006713Y014760D03*
D197*
X006020Y014450D03*
X006013Y014450D03*
X007043Y013585D03*
X006990Y013183D03*
X006218Y013183D03*
X006020Y013183D03*
X006013Y013183D03*
D198*
X006238Y013189D03*
X006607Y013374D03*
X007023Y013189D03*
X007030Y013189D03*
X007043Y013189D03*
D199*
X006667Y013130D03*
X006739Y013631D03*
X006653Y013658D03*
X006211Y014060D03*
X006046Y014225D03*
X006007Y013730D03*
X007036Y014305D03*
X006997Y014767D03*
X006739Y014767D03*
D200*
X006726Y014763D03*
X007016Y014763D03*
X007036Y014084D03*
X006759Y013628D03*
X006686Y013133D03*
X006231Y013556D03*
X005993Y013734D03*
X006066Y013886D03*
X006172Y013886D03*
X006172Y014229D03*
D201*
X006614Y013374D03*
X007036Y013189D03*
X005993Y013189D03*
D202*
X006640Y013126D03*
X006647Y013126D03*
X006693Y013641D03*
X006700Y013641D03*
X006660Y013654D03*
X006198Y014229D03*
X006040Y014229D03*
X007023Y014301D03*
X007030Y014301D03*
D203*
X006838Y013648D03*
X007030Y013582D03*
X006647Y013377D03*
X006970Y013179D03*
X006977Y013179D03*
X006205Y013179D03*
X006198Y013179D03*
X006040Y013179D03*
X006033Y013179D03*
D204*
X006046Y013565D03*
X006191Y013565D03*
X006026Y013724D03*
X006686Y013645D03*
X006706Y013638D03*
X006832Y013374D03*
X006614Y013123D03*
X006997Y014093D03*
X007016Y014298D03*
X006964Y014773D03*
D205*
X006983Y014770D03*
X007016Y014090D03*
X006726Y013635D03*
X006818Y013377D03*
X006211Y013562D03*
X006026Y013562D03*
X006191Y013885D03*
X006026Y014057D03*
D206*
X006066Y014460D03*
X006158Y014460D03*
X006172Y014460D03*
X005954Y014717D03*
X007016Y013582D03*
X006667Y013377D03*
X006924Y013173D03*
D207*
X006693Y013133D03*
X006680Y013133D03*
X006185Y013397D03*
X006000Y013556D03*
X006000Y013734D03*
X006053Y013886D03*
X006059Y013886D03*
X006178Y013886D03*
X006185Y013886D03*
X006013Y014057D03*
X006053Y014229D03*
X006059Y014229D03*
X006165Y014229D03*
X006178Y014229D03*
X006185Y014229D03*
X006719Y013866D03*
X006752Y013628D03*
X006990Y014539D03*
X007010Y014763D03*
X006733Y014763D03*
X006719Y014763D03*
D208*
X006957Y014773D03*
X006970Y014773D03*
X006977Y014773D03*
X007003Y014298D03*
X007010Y014298D03*
X007003Y014093D03*
X006205Y014060D03*
X006198Y014060D03*
X006033Y014054D03*
X006033Y013889D03*
X006033Y013724D03*
X006040Y013724D03*
X006040Y013565D03*
X006033Y013565D03*
X006198Y013565D03*
X006033Y013394D03*
X006620Y013123D03*
X006627Y013123D03*
X006825Y013374D03*
X006838Y013374D03*
X006033Y014225D03*
X006238Y014377D03*
D209*
X006198Y013885D03*
X006040Y013885D03*
X006020Y013727D03*
X006013Y013727D03*
X006020Y013562D03*
X006205Y013562D03*
X006198Y013397D03*
X006673Y013648D03*
X006680Y013648D03*
X006713Y013635D03*
X006719Y013635D03*
X007010Y014090D03*
X006990Y014770D03*
D210*
X006271Y014064D03*
X006620Y013377D03*
X006627Y013377D03*
X007003Y013186D03*
X007010Y013186D03*
X006224Y013186D03*
X006000Y013186D03*
D211*
X006079Y013572D03*
X006099Y013572D03*
X006119Y013572D03*
X006139Y013572D03*
X006158Y013572D03*
X006997Y014536D03*
D212*
X006997Y014295D03*
X006983Y014295D03*
X006983Y014097D03*
X006944Y014777D03*
X006231Y014380D03*
X006191Y014057D03*
X006046Y014057D03*
X006026Y013885D03*
X006046Y013720D03*
X006099Y013720D03*
X006119Y013720D03*
X006139Y013720D03*
X006158Y013720D03*
X006172Y013720D03*
X006191Y013720D03*
X006211Y013720D03*
X006231Y013720D03*
X006244Y013720D03*
X006264Y013720D03*
X006026Y013397D03*
D213*
X006851Y013374D03*
X006997Y013869D03*
D214*
X006871Y013621D03*
X006997Y013582D03*
X006686Y013377D03*
X006891Y013166D03*
X005974Y014057D03*
X006634Y014730D03*
D215*
X006713Y014532D03*
X006950Y014777D03*
X006977Y014295D03*
X006990Y014295D03*
X006990Y014097D03*
X006713Y013866D03*
X006277Y013720D03*
X006271Y013720D03*
X006257Y013720D03*
X006251Y013720D03*
X006238Y013720D03*
X006224Y013720D03*
X006218Y013720D03*
X006205Y013720D03*
X006198Y013720D03*
X006185Y013720D03*
X006178Y013720D03*
X006165Y013720D03*
X006152Y013720D03*
X006145Y013720D03*
X006132Y013720D03*
X006125Y013720D03*
X006112Y013720D03*
X006106Y013720D03*
X006059Y013720D03*
X006053Y013720D03*
X006205Y013885D03*
X006040Y014057D03*
X006224Y014380D03*
X006205Y013397D03*
X006601Y013120D03*
X006607Y013120D03*
D216*
X006884Y013166D03*
X006898Y013166D03*
X006990Y013582D03*
X006865Y013628D03*
X006825Y013641D03*
X006257Y014064D03*
D217*
X005974Y013744D03*
X006726Y013869D03*
X006983Y013869D03*
X006759Y013374D03*
X006726Y014536D03*
X006686Y014753D03*
X006983Y014536D03*
D218*
X006818Y013638D03*
X006983Y013585D03*
X006871Y013163D03*
D219*
X006152Y013572D03*
X006145Y013572D03*
X006132Y013572D03*
X006125Y013572D03*
X006112Y013572D03*
X006106Y013572D03*
X006092Y013572D03*
X006086Y013572D03*
X006277Y013823D03*
X006185Y014060D03*
X006977Y014100D03*
D220*
X006970Y014199D03*
X006957Y014199D03*
X006277Y013216D03*
D221*
X005954Y013216D03*
X006964Y014199D03*
D222*
X006944Y013872D03*
X006759Y013872D03*
X006891Y013608D03*
X006964Y013588D03*
X006851Y013160D03*
X005954Y013760D03*
X006759Y014737D03*
D223*
X006026Y014453D03*
X006026Y013179D03*
X006046Y013179D03*
X006191Y013179D03*
X006964Y013179D03*
D224*
X006931Y013879D03*
X006950Y014539D03*
X006957Y014539D03*
X006766Y014539D03*
D225*
X006759Y014539D03*
X006944Y014539D03*
D226*
X006944Y014202D03*
X006594Y014684D03*
X006079Y013813D03*
D227*
X006264Y014060D03*
X006191Y014456D03*
X006046Y014456D03*
X006046Y014720D03*
X006026Y014720D03*
X006007Y014720D03*
X005993Y014720D03*
X005974Y014720D03*
X006066Y014720D03*
X006079Y014720D03*
X006099Y014720D03*
X006119Y014720D03*
X006139Y014720D03*
X006158Y014720D03*
X006172Y014720D03*
X006191Y014720D03*
X006211Y014720D03*
X006231Y014720D03*
X006244Y014720D03*
X006264Y014720D03*
X006653Y013374D03*
X006944Y013176D03*
X006172Y013176D03*
X006066Y013176D03*
D228*
X006752Y014189D03*
X006937Y014176D03*
D229*
X006931Y014150D03*
D230*
X006924Y014641D03*
D231*
X006924Y014070D03*
D232*
X006924Y013374D03*
D233*
X006917Y014645D03*
D234*
X006917Y014074D03*
D235*
X006917Y013374D03*
X006911Y013374D03*
D236*
X006680Y014192D03*
X006785Y014648D03*
X006911Y014648D03*
D237*
X006911Y014077D03*
D238*
X006904Y014654D03*
D239*
X006904Y014087D03*
D240*
X006264Y013816D03*
X006891Y013374D03*
X006904Y013374D03*
D241*
X006898Y014704D03*
X006884Y014704D03*
X006878Y014704D03*
X006865Y014704D03*
X006858Y014704D03*
X006845Y014704D03*
X006838Y014704D03*
X006825Y014704D03*
X006812Y014704D03*
X006805Y014704D03*
D242*
X006898Y014136D03*
D243*
X006898Y013605D03*
X006271Y013532D03*
X005960Y013532D03*
X006647Y014740D03*
D244*
X006898Y013374D03*
D245*
X006891Y014140D03*
D246*
X006884Y014143D03*
D247*
X006271Y013820D03*
X006020Y013885D03*
X006086Y014057D03*
X006092Y014057D03*
X006106Y014057D03*
X006112Y014057D03*
X006125Y014057D03*
X006132Y014057D03*
X006145Y014057D03*
X006152Y014057D03*
X006884Y013377D03*
D248*
X005947Y013645D03*
X006878Y014146D03*
D249*
X006165Y013909D03*
X006073Y014054D03*
X006020Y013394D03*
X006865Y013374D03*
X006878Y013374D03*
D250*
X006871Y014150D03*
D251*
X006211Y013394D03*
X006871Y013374D03*
D252*
X006865Y014153D03*
X006812Y014153D03*
D253*
X006825Y014159D03*
X006858Y014159D03*
D254*
X006218Y014384D03*
X006845Y013374D03*
X006858Y013374D03*
D255*
X006851Y014166D03*
X006614Y014186D03*
D256*
X006851Y013641D03*
D257*
X006845Y014173D03*
D258*
X006838Y014169D03*
D259*
X006832Y014163D03*
D260*
X006832Y013641D03*
D261*
X006818Y014156D03*
X006284Y013648D03*
D262*
X006805Y014150D03*
D263*
X006799Y014146D03*
D264*
X006799Y013631D03*
D265*
X006799Y013377D03*
D266*
X006799Y013153D03*
X006739Y014532D03*
D267*
X006792Y014654D03*
X006700Y014192D03*
X006693Y014192D03*
D268*
X006792Y014093D03*
D269*
X006766Y013631D03*
X006785Y013374D03*
X006792Y013374D03*
X006713Y013136D03*
X006700Y013136D03*
X006178Y013394D03*
X006059Y013394D03*
X006053Y013394D03*
X005987Y013737D03*
X006257Y014364D03*
D270*
X006601Y014186D03*
X006785Y014087D03*
D271*
X006779Y014645D03*
D272*
X006779Y014080D03*
D273*
X006772Y014641D03*
D274*
X006772Y014077D03*
D275*
X006766Y014150D03*
D276*
X006759Y014169D03*
X006667Y014189D03*
D277*
X005993Y014057D03*
X006759Y013146D03*
D278*
X006752Y013143D03*
X006746Y013143D03*
D279*
X006746Y014199D03*
D280*
X006739Y014199D03*
X006284Y013229D03*
D281*
X006066Y013754D03*
X006739Y013866D03*
X006653Y014744D03*
D282*
X006719Y014196D03*
X006733Y014196D03*
D283*
X006726Y014196D03*
D284*
X006713Y014192D03*
D285*
X006066Y014225D03*
X005993Y013552D03*
X006706Y014760D03*
D286*
X006706Y014192D03*
D287*
X006686Y014189D03*
D288*
X006680Y013374D03*
X006673Y013374D03*
D289*
X006673Y014189D03*
D290*
X006244Y014374D03*
X006191Y014229D03*
X006667Y013654D03*
X006653Y013126D03*
X006634Y013126D03*
D291*
X006660Y014186D03*
D292*
X006653Y014189D03*
D293*
X006647Y014189D03*
D294*
X006640Y014186D03*
D295*
X006634Y014186D03*
D296*
X006614Y014714D03*
X006634Y013374D03*
D297*
X006627Y014189D03*
D298*
X006620Y014186D03*
D299*
X006607Y014186D03*
D300*
X006601Y014697D03*
D301*
X006594Y014189D03*
D302*
X006594Y013453D03*
D303*
X006284Y014532D03*
D304*
X006284Y014064D03*
D305*
X006271Y013209D03*
X005960Y013209D03*
D306*
X006257Y013813D03*
D307*
X006020Y014054D03*
X006013Y013559D03*
X006040Y013394D03*
X006218Y013559D03*
X006224Y013559D03*
D308*
X006158Y013912D03*
X006139Y013912D03*
X006119Y013912D03*
X006099Y013912D03*
X006066Y014057D03*
X006172Y014057D03*
X006211Y014387D03*
D309*
X006211Y014229D03*
D310*
X006139Y014057D03*
X006119Y014057D03*
X006099Y014057D03*
X006079Y014057D03*
X006211Y013885D03*
D311*
X006152Y013912D03*
X006145Y013912D03*
X006132Y013912D03*
X006125Y013912D03*
X006112Y013912D03*
X006106Y013912D03*
X006059Y014057D03*
X006053Y014057D03*
X006165Y014057D03*
X006178Y014057D03*
X006205Y014387D03*
D312*
X006205Y014229D03*
X006185Y013569D03*
X006178Y013569D03*
X006165Y013569D03*
X006073Y013569D03*
X006059Y013569D03*
X006053Y013569D03*
D313*
X006007Y013559D03*
X006046Y013394D03*
X006191Y013394D03*
X006046Y013889D03*
D314*
X006066Y013569D03*
X006172Y013569D03*
X006026Y014229D03*
D315*
X006158Y014060D03*
D316*
X006158Y013268D03*
X006139Y013268D03*
X006119Y013268D03*
X006099Y013268D03*
X006079Y013268D03*
D317*
X006086Y013268D03*
X006092Y013268D03*
X006106Y013268D03*
X006112Y013268D03*
X006125Y013268D03*
X006132Y013268D03*
X006145Y013268D03*
X006152Y013268D03*
D318*
X006020Y014225D03*
D319*
X005993Y014443D03*
D320*
X005967Y014427D03*
D321*
X005967Y013202D03*
D322*
X005947Y014529D03*
D323*
X005947Y014057D03*
X005947Y013232D03*
D324*
X005881Y013948D03*
D325*
X005861Y013948D03*
D326*
X005848Y013948D03*
D327*
X005835Y013945D03*
D328*
X005809Y013948D03*
M02*
